<svg xmlns="http://www.w3.org/2000/svg" version="1.1" viewBox="205.8 157.71 340.39 436.58">
 <g>
  <path d="m368.6 346.54v53.277l60.93 35.188 60.938-35.188v-70.371l-60.938-35.18-46.129 26.633v-53.277l-60.93-35.18-60.938 35.18v70.363l60.938 35.188zm14.801 0 38.715 22.348v44.754l-38.715-22.379zm53.516 67.121v-44.695l38.754-22.414v44.73zm31.352-79.918-38.68 22.371-38.789-22.406 38.715-22.355zm-99.668-4.2969-38.754 22.371v-44.695l38.754-22.406zm-7.3984-57.547-38.68 22.363-38.773-22.375 38.723-22.348zm-84.867 12.793 38.715 22.348v44.754l-38.715-22.348z"/>
  <path d="m305.81 538.42h12.422l-6.0273-23.441z"/>
  <path d="m538.79 462.36v-194.57l-2.168-2.168-107.91-107.91h-185.91c-7.8516 0-15.379 3.1172-20.93 8.668-5.5508 5.5508-8.6719 13.078-8.6719 20.93v249.68c-2.2422 1.2891-4.1055 3.1445-5.4062 5.3828-1.3008 2.2344-1.9844 4.7734-1.9922 7.3594v107.56c0.011718 9.8086 3.9141 19.215 10.848 26.148 6.9375 6.9375 16.34 10.84 26.152 10.852h266.39c9.8086-0.011719 19.215-3.9141 26.148-10.852 6.9375-6.9336 10.84-16.34 10.852-26.148v-82.188c-0.003906-2.5859-0.69141-5.1289-1.9922-7.3672-1.2969-2.2383-3.1641-4.0938-5.4102-5.3828zm-213.89 101.99-3.5586-13.852-18.73-0.003906-3.8164 13.852h-14.207l19.098-66.066h16.688l18.816 66.066zm58.504-4.2656c-5.0117 3.7227-11.176 5.5547-17.406 5.1797-4.9375-0.027344-9.7812-1.3438-14.059-3.8164-2.3906-1.2734-4.5273-2.9766-6.3047-5.0156-1.9727-2.3555-3.5625-5.0078-4.707-7.8594l11.84-5.1797c0.67188 1.457 1.4453 2.8672 2.3164 4.2188 0.78125 1.2188 1.7422 2.3086 2.8477 3.2383 1.0977 0.91406 2.3516 1.6211 3.7031 2.0898 1.5234 0.51953 3.125 0.76953 4.7344 0.73828 1.2227 0.003907 2.4414-0.11328 3.6406-0.35547 1.1133-0.20312 2.1836-0.60937 3.1523-1.1992 0.9375-0.55078 1.7031-1.3516 2.2188-2.3086 0.57422-1.1445 0.84766-2.418 0.80078-3.6992-0.066407-2.3008-1.3477-4.3945-3.3672-5.5-2.8125-1.8203-5.8242-3.3086-8.9766-4.4375-5.5156-1.875-10.699-4.6016-15.367-8.082-3.6055-3.1328-5.5664-7.75-5.3203-12.52-0.085938-5.0781 2.2148-9.9062 6.2148-13.039 4.3906-3.5352 9.9062-5.3711 15.539-5.1797 4.9531-0.070313 9.8242 1.2539 14.059 3.8203 2.0977 1.2695 3.957 2.8906 5.5 4.793 1.7852 2.2773 3.2539 4.7852 4.3555 7.4609l-13.059 3.9961c-0.91016-2.3125-2.2852-4.4141-4.0391-6.1719-1.8945-1.6641-4.3672-2.5117-6.8828-2.3555-0.97266 0.003906-1.9375 0.10937-2.8867 0.3125-0.92969 0.19531-1.8281 0.52344-2.6641 0.97656-1.7266 0.94531-2.7773 2.7812-2.7148 4.75 0.011719 0.92578 0.30859 1.8242 0.85156 2.5742 0.76562 1.0078 1.7539 1.8281 2.8867 2.3984 3.0742 1.6992 6.293 3.125 9.6172 4.2617 4.8359 1.6484 9.3672 4.0898 13.402 7.2227 4.2461 3.2227 6.6094 8.3516 6.3047 13.676 0.32422 5.6914-1.9727 11.223-6.2305 15.012zm77.602 4.2617h-12.578l-0.003906-45.016-12.875 45.02h-10.75l-12.707-44.93v44.93h-12.578v-66.066h18.906l11.723 42.445 11.84-42.445h19.082zm62.992-104.04h-162.16l-17.758-20.32-0.003906 0.003906c-2.8086-3.2148-6.8672-5.0547-11.137-5.0547h-104.93v-247.62c0-3.9258 1.5586-7.6875 4.3359-10.465 2.7734-2.7734 6.5391-4.3359 10.465-4.3359h175.45v76.145c0 7.8516 3.1172 15.379 8.668 20.93s13.082 8.668 20.93 8.668h76.145z"/>
 </g>
</svg>