<svg xmlns="http://www.w3.org/2000/svg" version="1.1" viewBox="183.61 163.87 384.79 424.25">
 <g fill-rule="evenodd">
  <path d="m223.07 198.41c0-19.074 15.461-34.535 34.531-34.535h177.59c8.1719 0 14.801 6.6289 14.801 14.801s-6.6289 14.801-14.801 14.801h-177.59c-2.7227 0-4.9336 2.207-4.9336 4.9336v177.59c0 8.1758-6.625 14.801-14.797 14.801-8.1758 0-14.801-6.625-14.801-14.801zm330.52 83.863c8.1719 0 14.801 6.625 14.801 14.797v256.52c0 19.07-15.461 34.531-34.531 34.531h-256.52c-8.1758 0-14.801-6.625-14.801-14.797 0-8.1758 6.625-14.801 14.801-14.801h256.52c2.7227 0 4.9297-2.207 4.9297-4.9336v-256.52c0-8.1719 6.6289-14.797 14.801-14.797z"/>
  <path d="m292.14 454.93c0-19.07 15.461-34.531 34.535-34.531h39.465c8.1719 0 14.797 6.6289 14.797 14.801s-6.625 14.801-14.797 14.801h-39.465c-2.7266 0-4.9336 2.207-4.9336 4.9297 0 2.7266 2.207 4.9336 4.9336 4.9336h19.73c19.07 0 34.531 15.461 34.531 34.535 0 19.07-15.461 34.531-34.531 34.531h-39.465c-8.1719 0-14.801-6.6289-14.801-14.801s6.6289-14.801 14.801-14.801h39.465c2.7266 0 4.9336-2.207 4.9336-4.9297 0-2.7266-2.207-4.9336-4.9336-4.9336h-19.73c-19.074 0-34.535-15.461-34.535-34.535z"/>
  <path d="m183.61 454.93c0-19.07 15.461-34.531 34.531-34.531h19.734c19.07 0 34.531 15.461 34.531 34.531v59.199c0 8.1719-6.625 14.801-14.801 14.801-8.1719 0-14.797-6.6289-14.797-14.801v-24.664h-29.602v24.664c0 8.1719-6.625 14.801-14.797 14.801-8.1758 0-14.801-6.6289-14.801-14.801zm29.598 4.9336h29.602v-4.9336c0-2.7227-2.2109-4.9297-4.9336-4.9297h-19.734c-2.7227 0-4.9336 2.207-4.9336 4.9297z"/>
  <path d="m410.79 421.16c6.043-2.0117 12.699 0.0625 16.52 5.1602l17.762 23.68 17.758-23.68c3.8242-5.0977 10.477-7.1719 16.52-5.1602 6.043 2.0156 10.121 7.668 10.121 14.039v78.93c0 8.1758-6.6289 14.801-14.801 14.801-8.1719 0-14.801-6.625-14.801-14.801v-34.531l-2.957 3.9453c-2.7969 3.7266-7.1836 5.9219-11.84 5.9219-4.6602 0-9.0469-2.1953-11.84-5.9219l-2.9609-3.9453v34.531c0 8.1758-6.625 14.801-14.801 14.801-8.1719 0-14.797-6.625-14.797-14.801v-78.93c0-6.3711 4.0742-12.023 10.117-14.039z"/>
  <path d="m429.54 165c5.5312-2.2891 11.895-1.0234 16.129 3.207l118.39 118.39c4.2344 4.2344 5.5 10.598 3.207 16.129-2.2891 5.5312-7.6875 9.1367-13.672 9.1367h-98.664c-19.07 0-34.531-15.461-34.531-34.531v-98.664c0-5.9844 3.6055-11.383 9.1367-13.672zm20.465 49.402v62.934c0 2.7227 2.207 4.9336 4.9297 4.9336h62.934z"/>
 </g>
</svg>